<svg width="33" height="32" viewBox="0 0 33 32" fill="none" xmlns="http://www.w3.org/2000/svg">
<path d="M9 0.888001V13.28L15.503 15.337C15.7362 15.4102 15.9397 15.5562 16.0837 15.7537C16.2277 15.9512 16.3046 16.1896 16.303 16.434V20.571H21.571C21.8739 20.5718 22.1642 20.6925 22.3783 20.9067C22.5925 21.1208 22.7132 21.4111 22.714 21.714V32H25V0.888001C25 0.652488 24.9064 0.426622 24.7399 0.26009C24.5734 0.0935574 24.3475 5.63114e-07 24.112 5.63114e-07H9.889C9.7723 -0.000130854 9.65672 0.022741 9.54887 0.0673083C9.44102 0.111876 9.34301 0.177264 9.26044 0.259736C9.17788 0.342207 9.11238 0.440144 9.06769 0.547947C9.023 0.655749 9 0.771303 9 0.888001ZM14.714 13.714H12.43C12.2771 13.7185 12.1249 13.6923 11.9823 13.6369C11.8398 13.5816 11.7098 13.4981 11.6 13.3916C11.4903 13.2851 11.403 13.1576 11.3435 13.0167C11.2839 12.8758 11.2532 12.7244 11.2532 12.5715C11.2532 12.4186 11.2839 12.2672 11.3435 12.1263C11.403 11.9854 11.4903 11.858 11.6 11.7514C11.7098 11.6449 11.8398 11.5614 11.9823 11.5061C12.1249 11.4507 12.2771 11.4245 12.43 11.429H14.715C14.8679 11.4245 15.0201 11.4507 15.1627 11.5061C15.3052 11.5614 15.4352 11.6449 15.545 11.7514C15.6547 11.858 15.742 11.9854 15.8015 12.1263C15.8611 12.2672 15.8918 12.4186 15.8918 12.5715C15.8918 12.7244 15.8611 12.8758 15.8015 13.0167C15.742 13.1576 15.6547 13.2851 15.545 13.3916C15.4352 13.4981 15.3052 13.5816 15.1627 13.6369C15.0201 13.6923 14.8679 13.7185 14.715 13.714H14.714ZM14.714 9.143H12.43C12.1269 9.143 11.8361 9.02258 11.6218 8.80822C11.4074 8.59387 11.287 8.30314 11.287 8C11.287 7.69686 11.4074 7.40613 11.6218 7.19178C11.8361 6.97742 12.1269 6.857 12.43 6.857H14.715C15.0181 6.857 15.3089 6.97742 15.5232 7.19178C15.7376 7.40613 15.858 7.69686 15.858 8C15.858 8.30314 15.7376 8.59387 15.5232 8.80822C15.3089 9.02258 15.0181 9.143 14.715 9.143H14.714ZM14.714 4.571H12.43C12.2771 4.57552 12.1249 4.54932 11.9823 4.49394C11.8398 4.43856 11.7098 4.35513 11.6 4.24859C11.4903 4.14205 11.403 4.01457 11.3435 3.8737C11.2839 3.73284 11.2532 3.58145 11.2532 3.4285C11.2532 3.27555 11.2839 3.12416 11.3435 2.9833C11.403 2.84243 11.4903 2.71495 11.6 2.60841C11.7098 2.50187 11.8398 2.41844 11.9823 2.36306C12.1249 2.30768 12.2771 2.28148 12.43 2.286H14.715C14.8679 2.28148 15.0201 2.30768 15.1627 2.36306C15.3052 2.41844 15.4352 2.50187 15.545 2.60841C15.6547 2.71495 15.742 2.84243 15.8015 2.9833C15.8611 3.12416 15.8918 3.27555 15.8918 3.4285C15.8918 3.58145 15.8611 3.73284 15.8015 3.8737C15.742 4.01457 15.6547 4.14205 15.545 4.24859C15.4352 4.35513 15.3052 4.43856 15.1627 4.49394C15.0201 4.54932 14.8679 4.57552 14.715 4.571H14.714ZM21.571 18.286H19.286C18.9829 18.286 18.6921 18.1656 18.4778 17.9512C18.2634 17.7369 18.143 17.4461 18.143 17.143C18.143 16.8399 18.2634 16.5491 18.4778 16.3348C18.6921 16.1204 18.9829 16 19.286 16H21.572C21.8751 16 22.1659 16.1204 22.3802 16.3348C22.5946 16.5491 22.715 16.8399 22.715 17.143C22.715 17.4461 22.5946 17.7369 22.3802 17.9512C22.1659 18.1656 21.8751 18.286 21.572 18.286H21.571ZM21.571 13.714H19.286C18.9888 13.7052 18.7068 13.581 18.4997 13.3677C18.2926 13.1544 18.1768 12.8688 18.1768 12.5715C18.1768 12.2742 18.2926 11.9886 18.4997 11.7753C18.7068 11.562 18.9888 11.4378 19.286 11.429H21.572C21.7249 11.4245 21.8771 11.4507 22.0197 11.5061C22.1622 11.5614 22.2922 11.6449 22.402 11.7514C22.5117 11.858 22.599 11.9854 22.6585 12.1263C22.7181 12.2672 22.7488 12.4186 22.7488 12.5715C22.7488 12.7244 22.7181 12.8758 22.6585 13.0167C22.599 13.1576 22.5117 13.2851 22.402 13.3916C22.2922 13.4981 22.1622 13.5816 22.0197 13.6369C21.8771 13.6923 21.7249 13.7185 21.572 13.714H21.571ZM21.571 9.143H19.286C18.9829 9.143 18.6921 9.02258 18.4778 8.80822C18.2634 8.59387 18.143 8.30314 18.143 8C18.143 7.69686 18.2634 7.40613 18.4778 7.19178C18.6921 6.97742 18.9829 6.857 19.286 6.857H21.572C21.7221 6.857 21.8707 6.88656 22.0094 6.94401C22.1481 7.00145 22.2741 7.08564 22.3802 7.19178C22.4864 7.29791 22.5706 7.42392 22.628 7.56259C22.6854 7.70127 22.715 7.8499 22.715 8C22.715 8.1501 22.6854 8.29873 22.628 8.43741C22.5706 8.57608 22.4864 8.70209 22.3802 8.80822C22.2741 8.91436 22.1481 8.99855 22.0094 9.05599C21.8707 9.11344 21.7221 9.143 21.572 9.143H21.571ZM21.571 4.571H19.286C18.9888 4.56221 18.7068 4.43798 18.4997 4.22468C18.2926 4.01138 18.1768 3.72579 18.1768 3.4285C18.1768 3.13121 18.2926 2.84562 18.4997 2.63232C18.7068 2.41902 18.9888 2.29479 19.286 2.286H21.572C21.7249 2.28148 21.8771 2.30768 22.0197 2.36306C22.1622 2.41844 22.2922 2.50187 22.402 2.60841C22.5117 2.71495 22.599 2.84243 22.6585 2.9833C22.7181 3.12416 22.7488 3.27555 22.7488 3.4285C22.7488 3.58145 22.7181 3.73284 22.6585 3.8737C22.599 4.01457 22.5117 4.14205 22.402 4.24859C22.2922 4.35513 22.1622 4.43856 22.0197 4.49394C21.8771 4.54932 21.7249 4.57552 21.572 4.571H21.571Z" fill="#0033A0"/>
<path d="M7.51349 15.2111L0.999493 17.2701V25.4871C0.967361 26.4153 1.16342 27.3372 1.57049 28.1721C2.99949 31.0061 6.59949 31.8171 7.51349 31.9901C8.42849 31.8181 12.0165 31.0071 13.4455 28.1611C13.8503 27.3415 14.0465 26.4347 14.0165 25.5211V17.2701L7.51349 15.2111ZM12.3025 21.5661L7.84549 26.0101C7.74117 26.1186 7.61601 26.2049 7.47751 26.2639C7.33901 26.3229 7.19003 26.3533 7.03949 26.3533C6.88896 26.3533 6.73998 26.3229 6.60148 26.2639C6.46298 26.2049 6.33781 26.1186 6.23349 26.0101L3.86949 23.6571C3.76358 23.5514 3.67955 23.4258 3.62221 23.2876C3.56488 23.1494 3.53537 23.0012 3.53537 22.8516C3.53537 22.7019 3.56488 22.5538 3.62221 22.4155C3.67955 22.2773 3.76358 22.1518 3.86949 22.0461C4.08528 21.8319 4.37697 21.7117 4.68099 21.7117C4.98501 21.7117 5.27671 21.8319 5.49249 22.0461L7.04649 23.5891L10.6805 19.9541C10.8963 19.7399 11.188 19.6197 11.492 19.6197C11.796 19.6197 12.0877 19.7399 12.3035 19.9541C12.4096 20.0598 12.4937 20.1854 12.5511 20.3237C12.6086 20.462 12.6381 20.6103 12.6381 20.7601C12.6381 20.9098 12.6086 21.0581 12.5511 21.1964C12.4937 21.3347 12.4086 21.4603 12.3025 21.5661ZM13.5715 32.0001V31.6391C14.3628 30.9556 15.0132 30.1244 15.4865 29.1921C16.0613 28.0448 16.342 26.7727 16.3035 25.4901V22.8571H20.4285V32.0001H13.5715ZM27.2855 10.0311V32.0001H32.9995V10.0311C32.9995 9.79555 32.9059 9.56969 32.7394 9.40316C32.5729 9.23662 32.347 9.14307 32.1115 9.14307H28.1735C27.938 9.14307 27.7121 9.23662 27.5456 9.40316C27.379 9.56969 27.2855 9.79555 27.2855 10.0311ZM30.7135 28.5711H29.5705C29.2733 28.5623 28.9913 28.438 28.7842 28.2247C28.5771 28.0114 28.4613 27.7259 28.4613 27.4286C28.4613 27.1313 28.5771 26.8457 28.7842 26.6324C28.9913 26.4191 29.2733 26.2949 29.5705 26.2861H30.7135C30.8664 26.2815 31.0186 26.3077 31.1612 26.3631C31.3037 26.4185 31.4337 26.5019 31.5435 26.6085C31.6532 26.715 31.7405 26.8425 31.8 26.9834C31.8596 27.1242 31.8903 27.2756 31.8903 27.4286C31.8903 27.5815 31.8596 27.7329 31.8 27.8738C31.7405 28.0146 31.6532 28.1421 31.5435 28.2487C31.4337 28.3552 31.3037 28.4386 31.1612 28.494C31.0186 28.5494 30.8664 28.5756 30.7135 28.5711ZM30.7135 24.0001H29.5705C29.2673 24.0001 28.9766 23.8796 28.7623 23.6653C28.5479 23.4509 28.4275 23.1602 28.4275 22.8571C28.4275 22.5539 28.5479 22.2632 28.7623 22.0488C28.9766 21.8345 29.2673 21.7141 29.5705 21.7141H30.7135C31.0166 21.7141 31.3074 21.8345 31.5217 22.0488C31.7361 22.2632 31.8565 22.5539 31.8565 22.8571C31.8565 23.1602 31.7361 23.4509 31.5217 23.6653C31.3074 23.8796 31.0166 24.0001 30.7135 24.0001ZM30.7135 19.4291H29.5705C29.2673 19.4291 28.9766 19.3086 28.7623 19.0943C28.5479 18.8799 28.4275 18.5892 28.4275 18.2861C28.4275 17.9829 28.5479 17.6922 28.7623 17.4778C28.9766 17.2635 29.2673 17.1431 29.5705 17.1431H30.7135C30.8636 17.1431 31.0122 17.1726 31.1509 17.2301C31.2896 17.2875 31.4156 17.3717 31.5217 17.4778C31.6279 17.584 31.712 17.71 31.7695 17.8487C31.8269 17.9873 31.8565 18.136 31.8565 18.2861C31.8565 18.4362 31.8269 18.5848 31.7695 18.7235C31.712 18.8621 31.6279 18.9882 31.5217 19.0943C31.4156 19.2004 31.2896 19.2846 31.1509 19.3421C31.0122 19.3995 30.8636 19.4291 30.7135 19.4291ZM30.7135 14.8571H29.5705C29.2673 14.8571 28.9766 14.7366 28.7623 14.5223C28.5479 14.3079 28.4275 14.0172 28.4275 13.7141C28.4275 13.4109 28.5479 13.1202 28.7623 12.9058C28.9766 12.6915 29.2673 12.5711 29.5705 12.5711H30.7135C30.8636 12.5711 31.0122 12.6006 31.1509 12.6581C31.2896 12.7155 31.4156 12.7997 31.5217 12.9058C31.6279 13.012 31.712 13.138 31.7695 13.2767C31.8269 13.4153 31.8565 13.564 31.8565 13.7141C31.8565 13.8642 31.8269 14.0128 31.7695 14.1515C31.712 14.2901 31.6279 14.4162 31.5217 14.5223C31.4156 14.6284 31.2896 14.7126 31.1509 14.7701C31.0122 14.8275 30.8636 14.8571 30.7135 14.8571Z" fill="#0033A0"/>
</svg>
