<svg width="32" height="30" viewBox="0 0 32 30" fill="none" xmlns="http://www.w3.org/2000/svg">
<path d="M5.81818 19.1353V16.217H11.6364V19.1353H5.81818ZM27.6364 0.166504H4.36364C3.20633 0.166504 2.09642 0.627695 1.27808 1.44862C0.459739 2.26954 0 3.38296 0 4.54392V19.1353C0 20.2963 0.459739 21.4097 1.27808 22.2306C2.09642 23.0515 3.20633 23.5127 4.36364 23.5127H16V20.5944H4.36364C3.97787 20.5944 3.6079 20.4407 3.33512 20.1671C3.06234 19.8934 2.90909 19.5223 2.90909 19.1353V8.92134H29.0909V11.8396H32V4.54392C32 3.38296 31.5403 2.26954 30.7219 1.44862C29.9036 0.627695 28.7937 0.166504 27.6364 0.166504ZM30.5455 13.2988C28.7788 13.213 27.0474 12.7713 25.4545 12.0001C25.1927 11.8676 24.897 11.8175 24.6062 11.8566C24.3155 11.8957 24.0433 12.022 23.8255 12.219C22.3364 13.0776 20.6196 13.4547 18.9091 13.2988C18.5233 13.2988 18.1534 13.4525 17.8806 13.7261C17.6078 13.9998 17.4545 14.3709 17.4545 14.7579V22.0536C17.4545 25.6868 22.9673 28.6343 24.0727 29.1888C24.2758 29.2914 24.4999 29.3449 24.7273 29.3449C24.9546 29.3449 25.1788 29.2914 25.3818 29.1888C26.4873 28.6343 32 25.6868 32 22.0536V14.7579C32 14.3709 31.8468 13.9998 31.574 13.7261C31.3012 13.4525 30.9312 13.2988 30.5455 13.2988Z" fill="#0033A0"/>
</svg>
