<svg width="32" height="32" viewBox="0 0 32 32" fill="none" xmlns="http://www.w3.org/2000/svg">
<path d="M7.17339 31.989H13.2424V27.5612H7.17339V31.989ZM11.0355 29.2216H11.5872C11.7335 29.2216 11.8738 29.2799 11.9773 29.3837C12.0808 29.4875 12.1389 29.6283 12.1389 29.7751C12.1389 29.9219 12.0808 30.0627 11.9773 30.1665C11.8738 30.2703 11.7335 30.3286 11.5872 30.3286H11.0355C10.8891 30.3286 10.7488 30.2703 10.6453 30.1665C10.5419 30.0627 10.4837 29.9219 10.4837 29.7751C10.4837 29.6283 10.5419 29.4875 10.6453 29.3837C10.7488 29.2799 10.8891 29.2216 11.0355 29.2216ZM12.1389 26.4543V25.4249C12.157 24.3657 11.8166 23.3316 11.1734 22.4915C10.8368 22.0387 10.3741 21.6959 9.84374 21.5063C8.54696 20.9749 7.35499 20.2158 6.32374 19.2648C6.0729 19.0579 5.75949 18.9424 5.43477 18.9374C5.11005 18.9324 4.79324 19.038 4.53615 19.2371C4.73477 19.5371 4.96374 19.8155 5.22029 20.0673L7.73615 22.5966C7.83891 22.7003 7.89659 22.8406 7.89659 22.9868C7.89659 23.1331 7.83891 23.2733 7.73615 23.377C7.6858 23.4296 7.6254 23.4714 7.55856 23.4999C7.49172 23.5284 7.41983 23.5432 7.34719 23.5432C7.27454 23.5432 7.20265 23.5284 7.13581 23.4999C7.06897 23.4714 7.00857 23.4296 6.95822 23.377L4.43684 20.8532C3.84758 20.2593 3.37582 19.5588 3.0465 18.7888L1.81063 15.8997C1.76422 15.7898 1.68876 15.6948 1.5924 15.6248C1.49604 15.5548 1.38245 15.5126 1.2639 15.5027C1.14536 15.4928 1.02637 15.5155 0.919789 15.5685C0.813209 15.6215 0.723095 15.7027 0.659185 15.8034C0.538358 15.9916 0.521254 16.2273 0.613392 16.431L2.77615 21.2074C3.01226 21.7312 3.34129 22.2075 3.74719 22.6132L7.57615 26.4543H12.1389ZM18.7596 27.5612V31.989H24.8286V27.5612H18.7596ZM20.9665 30.3286H20.4148C20.2684 30.3286 20.1281 30.2703 20.0246 30.1665C19.9212 30.0627 19.863 29.9219 19.863 29.7751C19.863 29.6283 19.9212 29.4875 20.0246 29.3837C20.1281 29.2799 20.2684 29.2216 20.4148 29.2216H20.9665C21.1128 29.2216 21.2532 29.2799 21.3566 29.3837C21.4601 29.4875 21.5182 29.6283 21.5182 29.7751C21.5182 29.9219 21.4601 30.0627 21.3566 30.1665C21.2532 30.2703 21.1128 30.3286 20.9665 30.3286ZM30.7927 15.5012C30.5306 15.5012 30.2939 15.6578 30.1913 15.8997L28.9555 18.7888C28.6261 19.5588 28.1544 20.2593 27.5651 20.8532L25.0437 23.377C24.9934 23.4296 24.933 23.4714 24.8661 23.4999C24.7993 23.5284 24.7274 23.5432 24.6548 23.5432C24.5821 23.5432 24.5102 23.5284 24.4434 23.4999C24.3766 23.4714 24.3162 23.4296 24.2658 23.377C24.163 23.2733 24.1054 23.1331 24.1054 22.9868C24.1054 22.8406 24.163 22.7003 24.2658 22.5966L26.7817 20.0673C27.038 19.8133 27.2673 19.5332 27.4658 19.2316C27.2081 19.0333 26.8909 18.9286 26.5662 18.9346C26.2415 18.9407 25.9284 19.0571 25.6782 19.2648C24.647 20.2158 23.455 20.9749 22.1582 21.5063C21.628 21.6962 21.1651 22.0387 20.8286 22.4915C20.1854 23.3316 19.845 24.3657 19.863 25.4249V26.4543H24.4258L28.2548 22.6132C28.6607 22.2075 28.9897 21.7312 29.2258 21.2074L31.3886 16.431C31.4338 16.3309 31.4533 16.221 31.4454 16.1114C31.4374 16.0018 31.4022 15.8959 31.3429 15.8034C31.2837 15.7109 31.2023 15.6348 31.1062 15.5821C31.01 15.5293 30.9023 15.5015 30.7927 15.5012ZM24.2493 12.7947C24.1632 13.0172 23.9519 13.1656 23.7141 13.1711C23.5957 13.169 23.4812 13.1285 23.3877 13.0557C23.2943 12.9828 23.2268 12.8816 23.1955 12.7671L22.6106 10.7137L21.4962 14.4385C21.4244 14.6716 21.2093 14.831 20.9665 14.8315H20.9444C20.8218 14.8268 20.7043 14.7813 20.6103 14.7021C20.5164 14.623 20.4515 14.5146 20.4258 14.3943L19.2727 8.97583L18.743 11.0901C18.7135 11.2101 18.6447 11.3167 18.5477 11.3929C18.4507 11.4691 18.3311 11.5106 18.2079 11.5107H15.2948L14.8699 12.7947C14.8286 12.9041 14.7555 12.9984 14.6601 13.0655C14.5646 13.1326 14.4513 13.1694 14.3348 13.1711C14.2164 13.169 14.1019 13.1285 14.0084 13.0557C13.9149 12.9828 13.8475 12.8816 13.8162 12.7671L13.2313 10.7137L12.1168 14.4385C12.039 14.6765 11.815 14.8365 11.5651 14.8315C11.4425 14.8268 11.325 14.7813 11.231 14.7021C11.1371 14.623 11.0722 14.5146 11.0465 14.3943L9.89339 8.97583L9.36374 11.0901C9.33416 11.2101 9.2654 11.3167 9.16841 11.3929C9.07142 11.4691 8.95178 11.5106 8.82856 11.5107H5.11546C5.8138 12.4791 6.6334 13.3534 7.55408 14.112C7.84098 14.3721 8.12788 14.6267 8.3927 14.8813C9.97615 16.3978 14.6824 20.2389 16.001 21.3126C17.3196 20.2389 22.0258 16.3978 23.6093 14.8813C23.8741 14.6267 24.161 14.3721 24.4479 14.112C25.3699 13.3548 26.1896 12.4803 26.8865 11.5107H24.6741L24.2493 12.7947Z" fill="#0033A0"/>
<path d="M9.39586 6.39674C9.42466 6.27424 9.49475 6.16547 9.59428 6.08883C9.6938 6.01218 9.81666 5.97236 9.94207 5.97611C10.1975 5.9833 10.4154 6.16318 10.4717 6.41335L11.6745 12.0532L12.7117 8.58294C12.743 8.4661 12.8131 8.36348 12.9104 8.29203C13.0077 8.22057 13.1264 8.18457 13.2469 8.18997C13.3662 8.19088 13.4819 8.23084 13.5765 8.30376C13.6712 8.37668 13.7394 8.47859 13.771 8.594L14.3834 10.747C14.4706 10.54 14.6726 10.4049 14.8966 10.4038H17.7766L18.7752 6.39674C18.7901 6.33586 18.8138 6.2783 18.8469 6.22517C18.9539 6.06798 19.1316 5.97445 19.3214 5.97611C19.5768 5.9833 19.7948 6.16318 19.851 6.41335L21.0538 12.0532L22.091 8.58294C22.1628 8.34993 22.3779 8.19053 22.6207 8.18997H22.6262C22.7455 8.19088 22.8613 8.23084 22.9559 8.30376C23.0505 8.37668 23.1187 8.47859 23.1503 8.594L23.7628 10.747C23.8499 10.54 24.0519 10.4049 24.2759 10.4038H27.4979C27.9385 9.39036 28.1568 8.29371 28.1379 7.1882C28.1379 3.3084 25.8869 0.99491 22.1076 0.99491C20.963 0.991026 19.8382 1.29497 18.8504 1.87511C17.8626 2.45525 17.0479 3.29038 16.491 4.29357C16.4397 4.37809 16.3676 4.44794 16.2816 4.49642C16.1956 4.54489 16.0986 4.57035 16 4.57035C15.9014 4.57035 15.8044 4.54489 15.7184 4.49642C15.6324 4.44794 15.5603 4.37809 15.509 4.29357C14.9521 3.29038 14.1374 2.45525 13.1496 1.87511C12.1618 1.29497 11.037 0.991026 9.89241 0.99491C6.1131 0.99491 3.86207 3.3084 3.86207 7.1882C3.8432 8.29371 4.06146 9.39036 4.50207 10.4038H8.39724L9.39586 6.39674ZM0.551724 10.4038C0.405398 10.4038 0.265065 10.4622 0.161596 10.5659C0.0581279 10.6697 0 10.8105 0 10.9573C0 11.1041 0.0581279 11.2449 0.161596 11.3487C0.265065 11.4525 0.405398 11.5108 0.551724 11.5108H5.11448C4.87779 11.161 4.6731 10.7902 4.50207 10.4038H0.551724ZM31.4483 10.4038H27.4979C27.3269 10.7902 27.1222 11.161 26.8855 11.5108H31.4483C31.5946 11.5108 31.7349 11.4525 31.8384 11.3487C31.9419 11.2449 32 11.1041 32 10.9573C32 10.8105 31.9419 10.6697 31.8384 10.5659C31.7349 10.4622 31.5946 10.4038 31.4483 10.4038Z" fill="#0033A0"/>
</svg>
