<svg width="35" height="34" viewBox="0 0 35 34" fill="none" xmlns="http://www.w3.org/2000/svg">
<path d="M28.3655 4.59269C28.3655 4.0394 27.9183 3.59069 27.3664 3.59069H25.2071L28.3655 6.75663V4.59269ZM9.38525 13.0103H29.3643C29.7685 13.0103 30.1327 12.7663 30.2874 12.3918C30.363 12.2086 30.3827 12.0071 30.3442 11.8127C30.3056 11.6183 30.2104 11.4397 30.0707 11.2995L20.081 1.28506C19.691 0.893913 19.0586 0.893913 18.6687 1.28506L8.67922 11.2997C8.53945 11.4398 8.44425 11.6183 8.40564 11.8127C8.36704 12.0071 8.38677 12.2086 8.46235 12.3917C8.53793 12.5748 8.66595 12.7313 8.83022 12.8415C8.99449 12.9516 9.18768 13.0104 9.38525 13.0103ZM5.26264 18.6709H0.999057C0.447302 18.6709 0 19.1195 0 19.6731V32.0908C0 32.644 0.447302 33.0928 0.999057 33.0928H5.26264C5.81434 33.0928 6.26165 32.644 6.26165 32.0908V19.6731C6.26165 19.1195 5.81434 18.6709 5.26264 18.6709ZM31.3842 23.2398L19.46 26.3582C19.297 26.4009 19.1292 26.4226 18.9607 26.4229C18.0076 26.4244 16.2083 26.4241 13.3206 26.4233C12.7695 26.4233 12.3231 25.9752 12.3231 25.4224C12.3231 24.8695 12.7699 24.4212 13.3211 24.4212H18.5044C19.6079 24.4212 20.5025 23.524 20.5025 22.4168C20.5025 21.3099 19.6079 20.4126 18.5044 20.4126H8.25933V31.6642C11.0905 31.6646 18.1713 31.6654 19.8422 31.6615C20.0767 31.661 20.3092 31.619 20.5291 31.5373L32.5704 27.0725C35.2308 26.037 34.0565 22.5295 31.3842 23.2398Z" fill="#0033A0"/>
<path d="M28.3642 21.9582V15.0146H10.3828V18.4082H18.503C20.7063 18.4082 22.4989 20.2065 22.4989 22.4168C22.4993 22.7944 22.4461 23.1702 22.3411 23.5329L28.3642 21.9582Z" fill="#0033A0"/>
</svg>
