<svg width="32" height="34" viewBox="0 0 32 34" fill="none" xmlns="http://www.w3.org/2000/svg">
<path d="M12.2808 29.7082V32.5286C12.2808 32.6782 12.2215 32.8217 12.1161 32.9275C12.0106 33.0333 11.8676 33.0927 11.7185 33.0927H3.8461C3.69697 33.0927 3.55394 33.0333 3.44849 32.9275C3.34303 32.8217 3.28379 32.6782 3.28379 32.5286V29.7082C3.28379 28.5113 3.75774 27.3635 4.60137 26.5172C5.445 25.6709 6.58921 25.1955 7.78228 25.1955C8.97535 25.1955 10.1196 25.6709 10.9632 26.5172C11.8068 27.3635 12.2808 28.5113 12.2808 29.7082ZM28.0255 29.7082V32.5286C28.0255 32.6782 27.9662 32.8217 27.8608 32.9275C27.7553 33.0333 27.6123 33.0927 27.4632 33.0927H19.5908C19.4417 33.0927 19.2987 33.0333 19.1932 32.9275C19.0877 32.8217 19.0285 32.6782 19.0285 32.5286V29.7082C19.0285 28.5113 19.5024 27.3635 20.3461 26.5172C21.1897 25.6709 22.3339 25.1955 23.527 25.1955C24.7201 25.1955 25.8643 25.6709 26.7079 26.5172C27.5515 27.3635 28.0255 28.5113 28.0255 29.7082ZM3.28379 19.5546C2.85905 19.555 2.44289 19.4347 2.08347 19.2076C1.72405 18.9806 1.43606 18.6561 1.25282 18.2717C1.06958 17.8873 0.998572 17.4587 1.04802 17.0356C1.09748 16.6124 1.26536 16.2119 1.53226 15.8804C1.79916 15.549 2.15415 15.3001 2.55617 15.1626C2.95819 15.0251 3.3908 15.0046 3.80394 15.1035C4.21708 15.2024 4.59388 15.4166 4.89072 15.7214C5.18756 16.0261 5.39232 16.4089 5.4813 16.8256C4.47678 17.4289 3.74709 18.4022 3.44798 19.5377C3.39288 19.5422 3.34002 19.5546 3.28379 19.5546ZM11.1561 20.6828C11.1561 21.5804 10.8007 22.4413 10.168 23.076C9.53524 23.7107 8.67708 24.0673 7.78228 24.0673C6.88747 24.0673 6.02932 23.7107 5.3966 23.076C4.76387 22.4413 4.40841 21.5804 4.40841 20.6828C4.40841 19.7852 4.76387 18.9243 5.3966 18.2896C6.02932 17.6549 6.88747 17.2983 7.78228 17.2983C8.67708 17.2983 9.53524 17.6549 10.168 18.2896C10.8007 18.9243 11.1561 19.7852 11.1561 20.6828ZM27.8602 19.5377C27.5611 18.4022 26.8314 17.4289 25.8268 16.8256C25.9158 16.409 26.1205 16.0262 26.4173 15.7215C26.7141 15.4167 27.0908 15.2025 27.5039 15.1036C27.917 15.0047 28.3496 15.0251 28.7516 15.1625C29.1536 15.2999 29.5086 15.5486 29.7755 15.88C30.0425 16.2113 30.2105 16.6117 30.26 17.0349C30.3096 17.458 30.2388 17.8865 30.0557 18.2709C29.8726 18.6554 29.5848 18.9799 29.2255 19.2071C28.8662 19.4343 28.4502 19.5547 28.0255 19.5546C27.9692 19.5546 27.9164 19.5422 27.8602 19.5377ZM23.527 17.2983C24.4218 17.2983 25.28 17.6549 25.9127 18.2896C26.5454 18.9243 26.9009 19.7852 26.9009 20.6828C26.9009 21.5804 26.5454 22.4413 25.9127 23.076C25.28 23.7107 24.4218 24.0673 23.527 24.0673C22.6322 24.0673 21.774 23.7107 21.1413 23.076C20.5086 22.4413 20.1531 21.5804 20.1531 20.6828C20.1531 19.7852 20.5086 18.9243 21.1413 18.2896C21.774 17.6549 22.6322 17.2983 23.527 17.2983ZM12.8667 1.20825C9.99666 4.10089 8.32997 8.17134 7.98471 13.2131C5.39133 11.4205 2.82719 11.6653 0.294544 14.1123C0.175335 14.2274 -0.0282222 14.1292 0.00326723 13.9656C1.23023 7.46849 6.36413 2.36125 12.8667 1.20825ZM31.0159 14.1123C28.4821 11.6653 25.9179 11.4194 23.3257 13.2131C22.9793 8.17247 21.3137 4.10202 18.4437 1.20825C24.9463 2.36125 30.079 7.46849 31.3083 13.9656C31.3386 14.1292 31.1351 14.2274 31.0159 14.1123ZM16.7793 13.8517V23.5032C16.7793 23.6528 16.72 23.7963 16.6146 23.9021C16.5091 24.0079 16.3661 24.0673 16.2169 24.0673H15.0923C14.9432 24.0673 14.8002 24.0079 14.6947 23.9021C14.5893 23.7963 14.53 23.6528 14.53 23.5032V13.8517C14.9079 13.7795 15.2835 13.7344 15.6546 13.7344C16.0269 13.7344 16.4014 13.7795 16.7793 13.8517Z" fill="#0033A0"/>
<path d="M21.4089 14.2083C17.5728 11.3201 13.7368 11.3201 9.89955 14.2083C9.78596 14.294 9.61952 14.2105 9.62514 14.0672C9.85794 8.12627 11.8699 3.72188 15.6542 0.991699C19.4386 3.72188 21.4505 8.12627 21.6833 14.0684C21.689 14.2105 21.5225 14.294 21.4089 14.2083Z" fill="#0033A0"/>
</svg>
