<svg width="28" height="32" viewBox="0 0 28 32" fill="none" xmlns="http://www.w3.org/2000/svg">
<path d="M12.1253 11.7312C12.1253 11.2135 12.5451 10.7937 13.0628 10.7937C13.5806 10.7937 14.0003 11.2135 14.0003 11.7312V17.0943C14.0161 17.0888 14.0317 17.0828 14.0476 17.0775L17.7726 15.8359V9.99875C17.7726 8.29319 16.385 6.90569 14.6795 6.90569H3.90166C2.19609 6.90569 0.808594 8.29325 0.808594 9.99875V24.5489C0.808594 25.9277 1.71559 27.0983 2.96416 27.4964V28.5906C2.96416 29.1084 3.38391 29.5281 3.90166 29.5281C4.41941 29.5281 4.83916 29.1084 4.83916 28.5906V27.642H13.045C12.4496 26.2744 12.1246 24.7727 12.1246 23.2119L12.1253 11.7312ZM6.45584 22.9322C6.45584 23.45 6.03609 23.8697 5.51834 23.8697C5.00059 23.8697 4.58084 23.45 4.58084 22.9322V11.7312C4.58084 11.2135 5.00059 10.7937 5.51834 10.7937C6.03609 10.7937 6.45584 11.2135 6.45584 11.7312V22.9322ZM10.2281 22.9322C10.2281 23.45 9.80834 23.8697 9.29059 23.8697C8.77284 23.8697 8.35309 23.45 8.35309 22.9322V11.7312C8.35309 11.2135 8.77284 10.7937 9.29059 10.7937C9.80834 10.7937 10.2281 11.2135 10.2281 11.7312V22.9322ZM7.41066 1.875H11.1706V5.03069H13.0456V1.86881C13.0455 0.838375 12.2072 0 11.1767 0H7.40447C6.37397 0 5.53566 0.838375 5.53566 1.86881V5.03062H7.41066V1.875Z" fill="#0033A0"/>
<path d="M26.5508 18.8563L20.8923 16.9702C20.6999 16.9061 20.4919 16.9061 20.2994 16.9702L14.6411 18.8563C14.4544 18.9186 14.292 19.0379 14.177 19.1976C14.0619 19.3572 14 19.5489 14 19.7457V23.2119C13.9982 25.1459 14.6059 27.0313 15.7368 28.6003C16.8677 30.1693 18.4642 31.342 20.2995 31.9519C20.4919 32.016 20.7 32.016 20.8924 31.9519C22.7277 31.342 24.3242 30.1693 25.455 28.6003C26.5859 27.0313 27.1936 25.1459 27.1918 23.2119V19.7457C27.1918 19.5489 27.1299 19.3572 27.0148 19.1976C26.8998 19.0379 26.7374 18.9186 26.5508 18.8563ZM23.2744 24.2329L19.8908 26.2911C19.7442 26.3806 19.5759 26.4278 19.4042 26.4278C19.2572 26.4279 19.1123 26.3935 18.9811 26.3273C18.8499 26.2611 18.7362 26.1649 18.649 26.0466L17.6499 24.6917C17.3426 24.275 17.4314 23.688 17.8481 23.3808C18.2648 23.0735 18.8518 23.1621 19.159 23.579L19.6491 24.2435L22.3 22.631C22.7423 22.362 23.319 22.5024 23.5882 22.9448C23.8573 23.3871 23.7168 23.9638 23.2744 24.2329Z" fill="#0033A0"/>
</svg>
