<svg width="32" height="33" viewBox="0 0 32 33" fill="none" xmlns="http://www.w3.org/2000/svg">
<path fill-rule="evenodd" clip-rule="evenodd" d="M13.0786 9.62031C12.7934 9.33419 12.7934 8.87023 13.0786 8.58404C13.3639 8.29792 13.8263 8.29792 14.1116 8.58404L15.2295 9.70542L17.93 6.97159C18.2137 6.68547 18.6749 6.68413 18.9601 6.96871C19.2454 7.25329 19.2466 7.71598 18.963 8.0021C17.5683 9.41522 17.1485 9.85521 15.7471 11.261C15.4619 11.5471 14.9994 11.5471 14.7141 11.261L13.0786 9.62031ZM25.1632 26.6489C26.7081 26.6489 27.9605 27.9053 27.9605 29.4551C27.9605 31.0048 26.7081 32.2612 25.1632 32.2612C23.6183 32.2612 22.3659 31.0048 22.3659 29.4551C22.3658 27.9053 23.6183 26.6489 25.1632 26.6489ZM21.4704 22.4941L22.0408 23.6211C22.1866 23.9112 22.0426 24.2619 21.7383 24.3671L21.1159 24.6103L21.5472 25.7221C21.5724 25.7875 21.5845 25.8573 21.5828 25.9274C21.5811 25.9975 21.5657 26.0665 21.5374 26.1307C21.5092 26.1948 21.4686 26.2527 21.418 26.3011C21.3674 26.3494 21.3078 26.3873 21.2426 26.4126C21.1774 26.4379 21.1079 26.45 21.038 26.4484C20.9681 26.4467 20.8993 26.4312 20.8353 26.4029C20.7714 26.3745 20.7137 26.3338 20.6655 26.283C20.6173 26.2323 20.5795 26.1725 20.5543 26.1071L19.9305 24.4989C19.9053 24.4335 19.8932 24.3638 19.8949 24.2937C19.8965 24.2236 19.9119 24.1545 19.9402 24.0904C19.9685 24.0263 20.0091 23.9684 20.0597 23.92C20.1103 23.8716 20.1699 23.8337 20.2351 23.8084L20.8244 23.5782L20.2758 22.4941H19.1008C18.1444 22.9359 17.4665 23.589 17.1347 24.3421H17.748C18.4319 24.3421 18.9895 24.9015 18.9895 25.5875V25.9446C18.9895 26.6306 18.4319 27.19 17.748 27.19H16.9033V28.0151C16.9033 28.5745 17.358 29.0306 17.9156 29.0306H21.3209C21.5318 27.0892 23.172 25.5777 25.1633 25.5777C27.1546 25.5777 28.7948 27.0892 29.0056 29.0306H31.6128V22.4942H21.4704V22.4941ZM31.6127 21.4227H23.1527C26.9017 19.8514 26.4955 15.8569 30.3543 15.8569H31.6127V21.4227ZM16.9033 26.1185C16.9033 25.8836 16.9018 25.6482 16.9034 25.4134H17.748C17.8424 25.4134 17.9216 25.4928 17.9216 25.5875V25.9445C17.9216 26.0392 17.8424 26.1186 17.748 26.1186L16.9033 26.1185ZM25.1632 28.3052C24.5302 28.3052 24.017 28.8201 24.017 29.4551C24.017 30.0901 24.5302 30.6049 25.1632 30.6049C25.7963 30.6049 26.3094 30.0901 26.3094 29.4551C26.3094 28.8201 25.7963 28.3052 25.1632 28.3052ZM6.44948 26.6489C4.90458 26.6489 3.65217 27.9053 3.65217 29.4551C3.65217 31.0048 4.90458 32.2612 6.44948 32.2612C7.99439 32.2612 9.2468 31.0048 9.2468 29.4551C9.24687 27.9053 7.99439 26.6489 6.44948 26.6489ZM10.1423 22.4941L9.57193 23.6211C9.42609 23.9112 9.57006 24.2619 9.87437 24.3671L10.4968 24.6103L10.0656 25.7221C10.0404 25.7875 10.0283 25.8573 10.03 25.9274C10.0316 25.9975 10.047 26.0665 10.0753 26.1307C10.1036 26.1948 10.1442 26.2527 10.1948 26.3011C10.2454 26.3494 10.305 26.3873 10.3702 26.4126C10.4354 26.4379 10.5049 26.45 10.5748 26.4484C10.6446 26.4467 10.7135 26.4312 10.7774 26.4029C10.8413 26.3745 10.8991 26.3338 10.9473 26.283C10.9955 26.2323 11.0333 26.1725 11.0585 26.1071L11.6823 24.4989C11.7075 24.4335 11.7196 24.3638 11.7179 24.2937C11.7163 24.2236 11.7008 24.1545 11.6726 24.0904C11.6443 24.0263 11.6037 23.9684 11.5531 23.92C11.5025 23.8716 11.4429 23.8337 11.3777 23.8084L10.7884 23.5782L11.337 22.4941H12.512C13.4683 22.9359 14.1463 23.589 14.478 24.3421H13.8648C13.1808 24.3421 12.6232 24.9015 12.6232 25.5875V25.9446C12.6232 26.6306 13.1808 27.19 13.8648 27.19H14.7095V28.0151C14.7095 28.5745 14.2548 29.0306 13.6972 29.0306H10.2919C10.081 27.0892 8.44081 25.5777 6.44948 25.5777C4.45816 25.5777 2.81801 27.0892 2.60715 29.0306H0V22.4942H10.1423V22.4941ZM0 21.4227H8.46003C4.71101 19.8514 5.11724 15.8569 1.25842 15.8569H0V21.4227ZM14.7094 26.1185C14.7094 25.8836 14.7109 25.6482 14.7093 25.4134H13.8647C13.7703 25.4134 13.6911 25.4928 13.6911 25.5875V25.9445C13.6911 26.0392 13.7703 26.1186 13.8647 26.1186L14.7094 26.1185ZM6.44948 28.3052C7.08253 28.3052 7.5957 28.8201 7.5957 29.4551C7.5957 30.0901 7.08253 30.6049 6.44948 30.6049C5.81644 30.6049 5.30327 30.0901 5.30327 29.4551C5.30327 28.8201 5.8165 28.3052 6.44948 28.3052ZM16.2038 0.199478C16.0818 0.147049 15.9576 0.147049 15.8357 0.199478L8.79598 3.22599C8.62043 3.30146 8.51276 3.46517 8.51276 3.65681V9.43704C8.51276 13.9066 11.7028 17.3567 16.0197 18.1115C20.3365 17.3566 23.5267 13.9065 23.5267 9.43704V3.65674C23.5267 3.46511 23.4191 3.30146 23.2435 3.22592L16.2038 0.199478ZM16.0197 3.80968C13.0985 3.80968 10.7303 6.18541 10.7303 9.11591C10.7303 12.0463 13.0985 14.4221 16.0197 14.4221C18.941 14.4221 21.3093 12.0464 21.3093 9.11591C21.3093 6.18541 18.941 3.80968 16.0197 3.80968Z" fill="#0033A0"/>
</svg>
