<svg width="32" height="32" viewBox="0 0 32 32" fill="none" xmlns="http://www.w3.org/2000/svg">
<path d="M30.5709 9.99137C30.5545 8.75972 30.3235 7.54032 29.8884 6.38772C29.511 5.4155 28.9347 4.53255 28.1962 3.79528C27.4577 3.05802 26.5733 2.48265 25.5995 2.10594C24.4598 1.67883 23.2558 1.44788 22.0387 1.42294C20.4717 1.35301 19.9749 1.3335 15.9971 1.3335C12.0193 1.3335 11.5094 1.3335 9.95383 1.42294C8.7373 1.44807 7.53384 1.67901 6.39467 2.10594C5.42068 2.48239 4.53612 3.05766 3.7976 3.79496C3.05907 4.53226 2.48284 5.41534 2.10576 6.38772C1.67708 7.52464 1.44626 8.72637 1.42325 9.94096C1.35321 11.507 1.33203 12.003 1.33203 15.9741C1.33203 19.9453 1.33203 20.4527 1.42325 22.0073C1.44768 23.2237 1.67736 24.4239 2.10576 25.5638C2.48347 26.5359 3.06013 27.4186 3.7989 28.1556C4.53768 28.8926 5.42232 29.4676 6.3963 29.844C7.53235 30.2883 8.73601 30.5357 9.95546 30.5758C11.5241 30.6457 12.0209 30.6668 15.9987 30.6668C19.9765 30.6668 20.4863 30.6668 22.0419 30.5758C23.259 30.5518 24.4631 30.3214 25.6027 29.8944C26.5763 29.5172 27.4605 28.9417 28.1989 28.2045C28.9374 27.4673 29.5139 26.5846 29.8916 25.6126C30.32 24.4743 30.5497 23.2741 30.5741 22.0561C30.6442 20.4917 30.6654 19.9957 30.6654 16.0229C30.6621 12.0518 30.6621 11.5476 30.5709 9.99137ZM15.9873 23.4839C11.8271 23.4839 8.45686 20.1193 8.45686 15.966C8.45686 11.8127 11.8271 8.44811 15.9873 8.44811C17.9845 8.44811 19.8999 9.24017 21.3121 10.6501C22.7243 12.0599 23.5177 13.9721 23.5177 15.966C23.5177 17.9599 22.7243 19.8721 21.3121 21.282C19.8999 22.6919 17.9845 23.4839 15.9873 23.4839ZM23.8174 9.92307C23.5868 9.92328 23.3584 9.87808 23.1452 9.79006C22.9321 9.70204 22.7384 9.57292 22.5753 9.41009C22.4122 9.24726 22.2829 9.05392 22.1947 8.84114C22.1065 8.62835 22.0613 8.4003 22.0615 8.17003C22.0615 7.93992 22.1069 7.71207 22.1951 7.49948C22.2833 7.28689 22.4126 7.09372 22.5756 6.93102C22.7385 6.76831 22.932 6.63924 23.145 6.55118C23.3579 6.46312 23.5861 6.4178 23.8166 6.4178C24.0471 6.4178 24.2754 6.46312 24.4883 6.55118C24.7012 6.63924 24.8947 6.76831 25.0577 6.93102C25.2207 7.09372 25.35 7.28689 25.4382 7.49948C25.5264 7.71207 25.5718 7.93992 25.5718 8.17003C25.5718 9.13924 24.7866 9.92307 23.8174 9.92307Z" fill="white"/>
<path d="M16.0013 21.3332C18.9468 21.3332 21.3346 18.9454 21.3346 15.9998C21.3346 13.0543 18.9468 10.6665 16.0013 10.6665C13.0558 10.6665 10.668 13.0543 10.668 15.9998C10.668 18.9454 13.0558 21.3332 16.0013 21.3332Z" fill="white"/>
</svg>
