<svg width="177" height="37" viewBox="0 0 177 37" fill="none" xmlns="http://www.w3.org/2000/svg">
<path fill-rule="evenodd" clip-rule="evenodd" d="M13.3726 0.0821775C13.2194 0.134997 10.7126 1.55114 7.80202 3.22916C4.8914 4.90718 2.14865 6.48381 1.70727 6.73294C1.26572 6.98189 0.973261 7.25301 1.05738 7.33537C1.14131 7.41756 3.04848 8.53433 5.29527 9.81713L9.38034 12.1491L9.43567 10.9178C9.50586 9.35764 9.30439 9.04294 7.6037 8.05489C6.8799 7.63456 6.32898 7.24968 6.3793 7.19945C6.50501 7.07442 11.5358 4.18396 11.6277 4.18396C11.6682 4.18396 11.7014 6.46349 11.7014 9.2496C11.7014 13.4679 11.6555 14.3607 11.4275 14.5875C11.084 14.9291 3.39719 19.3489 2.93967 19.468C2.62456 19.55 2.60283 19.363 2.60283 16.5793C2.60283 14.942 2.64851 13.6027 2.7044 13.6027C2.76029 13.6027 3.43117 13.944 4.19508 14.361C5.31254 14.971 5.70136 15.0968 6.18247 15.0045C6.88547 14.8695 8.20755 14.1549 8.30597 13.8567C8.36427 13.6801 1.27333 9.42412 0.328191 9.06843C0.0221824 8.95319 0.00324249 9.37075 0.00324249 16.2544C0.00324249 24.9788 -0.186899 24.4316 2.34492 22.9916C8.58951 19.44 13.6329 16.4624 13.9159 16.1604C14.2193 15.8365 14.2607 15.1543 14.3846 8.43829C14.4592 4.38637 14.4653 0.899025 14.3981 0.688303C14.2538 0.236202 13.7646 -0.0530096 13.3726 0.0821775ZM16.7416 0.181351C16.5723 0.384132 16.5301 2.33973 16.5697 8.15056L16.6221 15.8512L17.1139 16.2718C17.5141 16.6142 28.3672 22.9798 29.8521 23.7431C30.1537 23.8982 30.3731 23.903 30.6413 23.7602C31.003 23.5676 31.0126 23.3735 31.0126 16.2742C31.0126 10.8997 30.9566 8.98569 30.7989 8.98569C30.4935 8.98569 22.4711 13.6218 22.4711 13.7983C22.4711 14.0661 24.4574 15.0802 24.982 15.0802C25.2657 15.0802 26.0775 14.7478 26.7861 14.3415C27.4947 13.9352 28.1087 13.6027 28.1509 13.6027C28.193 13.6027 28.2274 14.9324 28.2274 16.5576C28.2274 18.1828 28.1646 19.5111 28.0881 19.5094C28.0116 19.5076 26.027 18.4024 23.6781 17.0537L19.4073 14.6011L19.3579 9.48489C19.3308 6.67089 19.3633 4.36864 19.4302 4.36864C19.5835 4.36864 23.7442 6.66221 24.2106 7.00405C24.5313 7.23897 24.4535 7.32263 23.1762 8.11436C22.393 8.60007 21.7002 9.17758 21.576 9.44869C21.337 9.97005 21.272 12.1253 21.495 12.1253C21.799 12.1253 29.8982 7.40703 29.8928 7.23324C29.8894 7.13056 28.9495 6.51151 27.8038 5.85773C26.658 5.20378 24.7597 4.11563 23.5852 3.43969C22.4108 2.76357 20.6349 1.74191 19.6387 1.16903C17.5514 -0.0312174 17.059 -0.199093 16.7416 0.181351ZM8.52117 21.9648C2.34065 25.4885 1.95294 25.7402 1.95294 26.2283C1.95294 26.7144 2.32468 26.9611 7.89486 30.1729C11.1629 32.0573 13.9829 33.6389 14.1617 33.6876C14.4651 33.7704 14.4867 33.4566 14.4867 28.9422V24.1084L13.5352 24.6268C12.1755 25.3679 11.8886 25.9164 11.8878 27.7771C11.8875 28.615 11.8243 29.2964 11.7478 29.2915C11.4669 29.2726 6.6452 26.4128 6.6205 26.2503C6.58559 26.0204 15.0497 21.176 15.4879 21.1752C15.9632 21.1745 24.3395 26.0204 24.2656 26.2534C24.1776 26.5303 19.2998 29.3134 19.1086 29.1958C19.0176 29.14 18.9405 28.3719 18.9372 27.4891C18.9337 26.5205 18.8416 25.7674 18.7051 25.5895C18.3907 25.1803 16.6692 24.1359 16.4902 24.246C16.4096 24.2954 16.3435 26.4503 16.3435 29.0346C16.3435 32.8547 16.3903 33.7331 16.594 33.7331C16.8694 33.7331 28.3029 27.2092 28.839 26.7462C29.5899 26.0976 29.2706 25.8582 22.4778 21.9797C18.856 19.9118 15.712 18.2198 15.491 18.2198C15.2701 18.2198 12.1337 19.905 8.52117 21.9648Z" fill="white"/>
<path d="M37.6523 28.891V5.38665H47.5764C47.8049 5.38665 48.1096 5.39753 48.4905 5.41929C48.8822 5.43017 49.2304 5.46282 49.5351 5.51723C50.9388 5.73486 52.0868 6.19733 52.9791 6.90463C53.8823 7.61194 54.5461 8.50423 54.9705 9.58151C55.3948 10.6479 55.607 11.8395 55.607 13.1561C55.607 14.4728 55.3894 15.6698 54.9541 16.7471C54.5298 17.8135 53.866 18.7003 52.9628 19.4076C52.0705 20.1149 50.9279 20.5774 49.5351 20.795C49.2304 20.8386 48.8822 20.8712 48.4905 20.893C48.0987 20.9147 47.794 20.9256 47.5764 20.9256H42.0921V28.891H37.6523ZM42.0921 16.7797H47.3805C47.609 16.7797 47.8593 16.7688 48.1314 16.7471C48.4034 16.7253 48.6537 16.6818 48.8822 16.6165C49.4807 16.4533 49.9431 16.1812 50.2696 15.8004C50.596 15.4086 50.8191 14.9788 50.9388 14.5109C51.0694 14.0321 51.1347 13.5805 51.1347 13.1561C51.1347 12.7317 51.0694 12.2856 50.9388 11.8177C50.8191 11.3389 50.596 10.9091 50.2696 10.5282C49.9431 10.1365 49.4807 9.859 48.8822 9.69577C48.6537 9.63048 48.4034 9.58696 48.1314 9.56519C47.8593 9.54343 47.609 9.53255 47.3805 9.53255H42.0921V16.7797Z" fill="white"/>
<path d="M65.1924 29.3806C63.4187 29.3806 61.8626 28.9835 60.5242 28.1891C59.1857 27.3947 58.1411 26.3011 57.3903 24.9083C56.6503 23.5046 56.2803 21.8941 56.2803 20.0768C56.2803 18.2379 56.6612 16.6219 57.4229 15.2291C58.1846 13.8254 59.2347 12.7317 60.5731 11.9483C61.9116 11.1648 63.4513 10.7731 65.1924 10.7731C66.9661 10.7731 68.5222 11.1702 69.8606 11.9646C71.2099 12.759 72.26 13.858 73.0108 15.2617C73.7617 16.6546 74.1371 18.2596 74.1371 20.0768C74.1371 21.905 73.7562 23.5209 72.9945 24.9246C72.2437 26.3175 71.1936 27.4111 69.8443 28.2054C68.5059 28.9889 66.9552 29.3806 65.1924 29.3806ZM65.1924 25.2347C66.6179 25.2347 67.6788 24.7559 68.3753 23.7984C69.0826 22.8299 69.4362 21.5894 69.4362 20.0768C69.4362 18.5099 69.0771 17.2585 68.359 16.3227C67.6516 15.3869 66.5961 14.919 65.1924 14.919C64.2239 14.919 63.4296 15.1366 62.8093 15.5719C62.1891 16.0071 61.7266 16.611 61.4219 17.3836C61.1281 18.1562 60.9812 19.054 60.9812 20.0768C60.9812 21.6547 61.3349 22.9115 62.0422 23.8473C62.7603 24.7723 63.8104 25.2347 65.1924 25.2347Z" fill="white"/>
<path d="M76.7472 28.891V4.89697H81.1869V28.891H76.7472Z" fill="white"/>
<path d="M85.1009 8.81436V4.89697H89.5406V8.81436H85.1009ZM85.1009 28.891V11.2627H89.5406V28.891H85.1009Z" fill="white"/>
<path d="M100.898 29.3806C99.0696 29.3806 97.5027 28.9726 96.1969 28.1565C94.8911 27.3403 93.89 26.2304 93.1936 24.8267C92.4971 23.4229 92.1489 21.8397 92.1489 20.0768C92.1489 18.2923 92.508 16.6981 93.2262 15.2944C93.9553 13.8906 94.9781 12.7862 96.2948 11.9809C97.6115 11.1757 99.1676 10.7731 100.963 10.7731C103.041 10.7731 104.783 11.3008 106.186 12.3563C107.601 13.401 108.504 14.8319 108.896 16.6491L104.456 17.8244C104.195 16.9103 103.738 16.1975 103.085 15.6861C102.443 15.1747 101.714 14.919 100.898 14.919C99.9619 14.919 99.1948 15.1475 98.5963 15.6045C97.9978 16.0506 97.5571 16.6655 97.2742 17.4489C96.9912 18.2215 96.8498 19.0975 96.8498 20.0768C96.8498 21.6112 97.1871 22.8571 97.8618 23.8147C98.5473 24.7614 99.5593 25.2347 100.898 25.2347C101.899 25.2347 102.661 25.0062 103.183 24.5492C103.705 24.0922 104.097 23.4393 104.358 22.5905L108.896 23.5372C108.395 25.4088 107.448 26.8507 106.056 27.8627C104.663 28.8746 102.944 29.3806 100.898 29.3806Z" fill="white"/>
<path d="M112.47 36.7257L115.865 27.3893L115.93 30.1315L108.896 16.6491L112.861 11.2627L118.019 24.6145H116.975L122.1 11.2627H126.54L116.583 36.7257H112.47Z" fill="white"/>
<path d="M139.542 28.891V20.5665C139.542 20.1639 139.521 19.6525 139.477 19.0322C139.434 18.4011 139.298 17.7699 139.069 17.1388C138.841 16.5077 138.465 15.9799 137.943 15.5555C137.431 15.1311 136.702 14.919 135.756 14.919C135.375 14.919 134.967 14.9788 134.531 15.0985C134.096 15.2182 133.688 15.4522 133.307 15.8004C132.926 16.1377 132.611 16.6383 132.361 17.302C132.121 17.9658 132.001 18.8472 132.001 19.9463L129.455 18.7384C129.455 17.3456 129.738 16.0398 130.304 14.821C130.87 13.6023 131.719 12.6175 132.85 11.8667C133.993 11.1158 135.429 10.7404 137.159 10.7404C138.541 10.7404 139.668 10.9744 140.538 11.4423C141.409 11.9102 142.083 12.5032 142.562 13.2214C143.052 13.9396 143.4 14.6904 143.607 15.4739C143.813 16.2465 143.939 16.9538 143.982 17.5958C144.026 18.2379 144.047 18.7058 144.047 18.9996V28.891H139.542ZM127.496 28.891V5.38665H131.446V17.4653H132.001V28.891H127.496Z" fill="white"/>
<path d="M153.539 29.4133C152.157 29.4133 151.03 29.1793 150.16 28.7114C149.289 28.2435 148.609 27.6505 148.12 26.9323C147.641 26.2141 147.298 25.4687 147.091 24.6961C146.885 23.9126 146.759 23.1999 146.716 22.5579C146.672 21.9158 146.651 21.4479 146.651 21.1541V11.2627H151.156V19.5872C151.156 19.9898 151.177 20.5067 151.221 21.1378C151.264 21.7581 151.4 22.3838 151.629 23.0149C151.857 23.646 152.227 24.1738 152.739 24.5982C153.261 25.0225 153.996 25.2347 154.942 25.2347C155.323 25.2347 155.731 25.1749 156.167 25.0552C156.602 24.9355 157.01 24.707 157.391 24.3697C157.772 24.0214 158.082 23.5154 158.321 22.8517C158.571 22.177 158.697 21.2956 158.697 20.2074L161.243 21.4153C161.243 22.8081 160.96 24.1139 160.394 25.3327C159.828 26.5514 158.974 27.5362 157.831 28.287C156.7 29.0379 155.269 29.4133 153.539 29.4133ZM159.252 28.891V23.0475H158.697V11.2627H163.169V28.891H159.252Z" fill="white"/>
<path d="M177.002 28.891C175.783 29.1195 174.586 29.2174 173.411 29.1848C172.247 29.163 171.202 28.9617 170.277 28.5808C169.363 28.1891 168.667 27.5634 168.188 26.7038C167.753 25.8985 167.524 25.0824 167.502 24.2554C167.481 23.4175 167.47 22.4708 167.47 21.4153V6.36599H171.909V21.1541C171.909 21.8397 171.915 22.4599 171.926 23.0149C171.947 23.559 172.062 23.9942 172.268 24.3207C172.66 24.9409 173.286 25.2783 174.146 25.3327C175.005 25.3871 175.957 25.3436 177.002 25.2021V28.891ZM163.169 14.6904V11.2627H177.002V14.6904H163.169Z" fill="white"/>
</svg>
