<svg width="177" height="38" viewBox="0 0 177 38" fill="none" xmlns="http://www.w3.org/2000/svg">
<path fill-rule="evenodd" clip-rule="evenodd" d="M13.3726 0.719385C13.2194 0.772204 10.7126 2.18834 7.80202 3.86636C4.8914 5.54438 2.14865 7.12101 1.70727 7.37015C1.26572 7.6191 0.973261 7.89021 1.05738 7.97258C1.14131 8.05476 3.04848 9.17153 5.29527 10.4543L9.38034 12.7863L9.43567 11.555C9.50586 9.99485 9.30439 9.68015 7.6037 8.6921C6.8799 8.27176 6.32898 7.88689 6.3793 7.83665C6.50501 7.71163 11.5358 4.82117 11.6277 4.82117C11.6682 4.82117 11.7014 7.1007 11.7014 9.88681C11.7014 14.1051 11.6555 14.9979 11.4275 15.2247C11.084 15.5663 3.39719 19.9861 2.93967 20.1053C2.62456 20.1873 2.60283 20.0002 2.60283 17.2165C2.60283 15.5793 2.64851 14.2399 2.7044 14.2399C2.76029 14.2399 3.43117 14.5812 4.19508 14.9982C5.31254 15.6083 5.70136 15.734 6.18247 15.6417C6.88547 15.5067 8.20755 14.7921 8.30597 14.4939C8.36427 14.3173 1.27333 10.0613 0.328191 9.70563C0.0221824 9.59039 0.00324249 10.008 0.00324249 16.8916C0.00324249 25.616 -0.186899 25.0688 2.34492 23.6288C8.58951 20.0772 13.6329 17.0996 13.9159 16.7976C14.2193 16.4737 14.2607 15.7915 14.3846 9.0755C14.4592 5.02358 14.4653 1.53623 14.3981 1.32551C14.2538 0.873409 13.7646 0.584197 13.3726 0.719385ZM16.7416 0.818559C16.5723 1.02134 16.5301 2.97693 16.5697 8.78777L16.6221 16.4884L17.1139 16.909C17.5141 17.2514 28.3672 23.617 29.8521 24.3803C30.1537 24.5354 30.3731 24.5402 30.6413 24.3974C31.003 24.2048 31.0126 24.0107 31.0126 16.9114C31.0126 11.5369 30.9566 9.6229 30.7989 9.6229C30.4935 9.6229 22.4711 14.259 22.4711 14.4355C22.4711 14.7033 24.4574 15.7174 24.982 15.7174C25.2657 15.7174 26.0775 15.385 26.7861 14.9787C27.4947 14.5724 28.1087 14.2399 28.1509 14.2399C28.193 14.2399 28.2274 15.5697 28.2274 17.1949C28.2274 18.8201 28.1646 20.1483 28.0881 20.1466C28.0116 20.1448 26.027 19.0396 23.6781 17.6909L19.4073 15.2383L19.3579 10.1221C19.3308 7.30809 19.3633 5.00585 19.4302 5.00585C19.5835 5.00585 23.7442 7.29941 24.2106 7.64126C24.5313 7.87618 24.4535 7.95984 23.1762 8.75157C22.393 9.23728 21.7002 9.81478 21.576 10.0859C21.337 10.6073 21.272 12.7625 21.495 12.7625C21.799 12.7625 29.8982 8.04424 29.8928 7.87045C29.8894 7.76777 28.9495 7.14871 27.8038 6.49494C26.658 5.84098 24.7597 4.75284 23.5852 4.0769C22.4108 3.40078 20.6349 2.37912 19.6387 1.80624C17.5514 0.60599 17.059 0.438114 16.7416 0.818559ZM8.52117 22.602C2.34065 26.1257 1.95294 26.3774 1.95294 26.8655C1.95294 27.3516 2.32468 27.5984 7.89486 30.8102C11.1629 32.6945 13.9829 34.2761 14.1617 34.3248C14.4651 34.4076 14.4867 34.0938 14.4867 29.5794V24.7456L13.5352 25.264C12.1755 26.0051 11.8886 26.5536 11.8878 28.4143C11.8875 29.2522 11.8243 29.9337 11.7478 29.9287C11.4669 29.9098 6.6452 27.05 6.6205 26.8875C6.58559 26.6576 15.0497 21.8132 15.4879 21.8125C15.9632 21.8117 24.3395 26.6576 24.2656 26.8907C24.1776 27.1675 19.2998 29.9506 19.1086 29.833C19.0176 29.7772 18.9405 29.0091 18.9372 28.1264C18.9337 27.1577 18.8416 26.4046 18.7051 26.2267C18.3907 25.8175 16.6692 24.7731 16.4902 24.8832C16.4096 24.9327 16.3435 27.0875 16.3435 29.6718C16.3435 33.4919 16.3903 34.3703 16.594 34.3703C16.8694 34.3703 28.3029 27.8464 28.839 27.3834C29.5899 26.7348 29.2706 26.4954 22.4778 22.6169C18.856 20.549 15.712 18.857 15.491 18.857C15.2701 18.857 12.1337 20.5422 8.52117 22.602Z" fill="#0033A0"/>
<path d="M37.6523 29.5279V6.02361H47.5764C47.8049 6.02361 48.1096 6.03449 48.4905 6.05625C48.8822 6.06713 49.2304 6.09978 49.5351 6.15419C50.9388 6.37182 52.0868 6.83429 52.9791 7.54159C53.8823 8.2489 54.5461 9.1412 54.9705 10.2185C55.3948 11.2849 55.607 12.4764 55.607 13.7931C55.607 15.1098 55.3894 16.3068 54.9541 17.384C54.5298 18.4504 53.866 19.3373 52.9628 20.0446C52.0705 20.7519 50.9279 21.2144 49.5351 21.432C49.2304 21.4755 48.8822 21.5082 48.4905 21.5299C48.0987 21.5517 47.794 21.5626 47.5764 21.5626H42.0921V29.5279H37.6523ZM42.0921 17.4167H47.3805C47.609 17.4167 47.8593 17.4058 48.1314 17.384C48.4034 17.3623 48.6537 17.3187 48.8822 17.2535C49.4807 17.0902 49.9431 16.8182 50.2696 16.4373C50.596 16.0456 50.8191 15.6158 50.9388 15.1479C51.0694 14.6691 51.1347 14.2175 51.1347 13.7931C51.1347 13.3687 51.0694 12.9226 50.9388 12.4547C50.8191 11.9759 50.596 11.546 50.2696 11.1652C49.9431 10.7734 49.4807 10.496 48.8822 10.3327C48.6537 10.2674 48.4034 10.2239 48.1314 10.2022C47.8593 10.1804 47.609 10.1695 47.3805 10.1695H42.0921V17.4167Z" fill="#0033A0"/>
<path d="M65.1924 30.0176C63.4187 30.0176 61.8626 29.6204 60.5242 28.8261C59.1857 28.0317 58.1411 26.9381 57.3903 25.5453C56.6503 24.1415 56.2803 22.531 56.2803 20.7138C56.2803 18.8748 56.6612 17.2589 57.4229 15.866C58.1846 14.4623 59.2347 13.3687 60.5731 12.5852C61.9116 11.8018 63.4513 11.41 65.1924 11.41C66.9661 11.41 68.5222 11.8072 69.8606 12.6016C71.2099 13.3959 72.26 14.495 73.0108 15.8987C73.7617 17.2915 74.1371 18.8966 74.1371 20.7138C74.1371 22.5419 73.7562 24.1578 72.9945 25.5616C72.2437 26.9544 71.1936 28.048 69.8443 28.8424C68.5059 29.6259 66.9552 30.0176 65.1924 30.0176ZM65.1924 25.8717C66.6179 25.8717 67.6788 25.3929 68.3753 24.4353C69.0826 23.4669 69.4362 22.2264 69.4362 20.7138C69.4362 19.1469 69.0771 17.8955 68.359 16.9596C67.6516 16.0238 66.5961 15.5559 65.1924 15.5559C64.2239 15.5559 63.4296 15.7736 62.8093 16.2088C62.1891 16.6441 61.7266 17.248 61.4219 18.0206C61.1281 18.7932 60.9812 19.6909 60.9812 20.7138C60.9812 22.2916 61.3349 23.5485 62.0422 24.4843C62.7603 25.4092 63.8104 25.8717 65.1924 25.8717Z" fill="#0033A0"/>
<path d="M76.7472 29.5279V5.53394H81.1869V29.5279H76.7472Z" fill="#0033A0"/>
<path d="M85.1009 9.45132V5.53394H89.5406V9.45132H85.1009ZM85.1009 29.5279V11.8997H89.5406V29.5279H85.1009Z" fill="#0033A0"/>
<path d="M100.898 30.0176C99.0696 30.0176 97.5027 29.6095 96.1969 28.7934C94.8911 27.9773 93.89 26.8674 93.1936 25.4636C92.4971 24.0599 92.1489 22.4766 92.1489 20.7138C92.1489 18.9292 92.508 17.3351 93.2262 15.9313C93.9553 14.5276 94.9781 13.4231 96.2948 12.6179C97.6115 11.8126 99.1676 11.41 100.963 11.41C103.041 11.41 104.783 11.9378 106.186 12.9933C107.601 14.0379 108.504 15.4689 108.896 17.2861L104.456 18.4613C104.195 17.5473 103.738 16.8345 103.085 16.3231C102.443 15.8116 101.714 15.5559 100.898 15.5559C99.9619 15.5559 99.1948 15.7844 98.5963 16.2415C97.9978 16.6876 97.5571 17.3024 97.2742 18.0859C96.9912 18.8585 96.8498 19.7345 96.8498 20.7138C96.8498 22.2481 97.1871 23.4941 97.8618 24.4517C98.5473 25.3984 99.5593 25.8717 100.898 25.8717C101.899 25.8717 102.661 25.6432 103.183 25.1862C103.705 24.7291 104.097 24.0762 104.358 23.2275L108.896 24.1742C108.395 26.0458 107.448 27.4876 106.056 28.4996C104.663 29.5116 102.944 30.0176 100.898 30.0176Z" fill="#0033A0"/>
<path d="M112.47 37.3627L115.865 28.0263L115.93 30.7684L108.896 17.2861L112.861 11.8997L118.019 25.2514H116.975L122.1 11.8997H126.54L116.583 37.3627H112.47Z" fill="#0033A0"/>
<path d="M139.542 29.5279V21.2035C139.542 20.8009 139.521 20.2894 139.477 19.6692C139.434 19.038 139.298 18.4069 139.069 17.7758C138.841 17.1446 138.465 16.6169 137.943 16.1925C137.431 15.7681 136.702 15.5559 135.756 15.5559C135.375 15.5559 134.967 15.6158 134.531 15.7355C134.096 15.8552 133.688 16.0891 133.307 16.4373C132.926 16.7747 132.611 17.2752 132.361 17.939C132.121 18.6028 132.001 19.4842 132.001 20.5832L129.455 19.3754C129.455 17.9825 129.738 16.6767 130.304 15.458C130.87 14.2392 131.719 13.2545 132.85 12.5036C133.993 11.7528 135.429 11.3774 137.159 11.3774C138.541 11.3774 139.668 11.6113 140.538 12.0792C141.409 12.5471 142.083 13.1402 142.562 13.8584C143.052 14.5766 143.4 15.3274 143.607 16.1109C143.813 16.8835 143.939 17.5908 143.982 18.2328C144.026 18.8748 144.047 19.3427 144.047 19.6365V29.5279H139.542ZM127.496 29.5279V6.02361H131.446V18.1022H132.001V29.5279H127.496Z" fill="#0033A0"/>
<path d="M153.539 30.0502C152.157 30.0502 151.03 29.8163 150.16 29.3484C149.289 28.8805 148.609 28.2874 148.12 27.5692C147.641 26.8511 147.298 26.1057 147.091 25.3331C146.885 24.5496 146.759 23.8368 146.716 23.1948C146.672 22.5528 146.651 22.0849 146.651 21.7911V11.8997H151.156V20.2241C151.156 20.6268 151.177 21.1436 151.221 21.7748C151.264 22.395 151.4 23.0207 151.629 23.6519C151.857 24.283 152.227 24.8107 152.739 25.2351C153.261 25.6595 153.996 25.8717 154.942 25.8717C155.323 25.8717 155.731 25.8119 156.167 25.6922C156.602 25.5725 157.01 25.3439 157.391 25.0066C157.772 24.6584 158.082 24.1524 158.321 23.4886C158.571 22.814 158.697 21.9326 158.697 20.8444L161.243 22.0523C161.243 23.4451 160.96 24.7509 160.394 25.9696C159.828 27.1884 158.974 28.1732 157.831 28.924C156.7 29.6748 155.269 30.0502 153.539 30.0502ZM159.252 29.5279V23.6845H158.697V11.8997H163.169V29.5279H159.252Z" fill="#0033A0"/>
<path d="M177.002 29.5279C175.783 29.7564 174.586 29.8544 173.411 29.8217C172.247 29.8 171.202 29.5987 170.277 29.2178C169.363 28.8261 168.667 28.2004 168.188 27.3407C167.753 26.5355 167.524 25.7194 167.502 24.8924C167.481 24.0545 167.47 23.1078 167.47 22.0523V7.00295H171.909V21.7911C171.909 22.4766 171.915 23.0969 171.926 23.6519C171.947 24.1959 172.062 24.6312 172.268 24.9576C172.66 25.5779 173.286 25.9152 174.146 25.9696C175.005 26.024 175.957 25.9805 177.002 25.8391V29.5279ZM163.169 15.3274V11.8997H177.002V15.3274H163.169Z" fill="#0033A0"/>
</svg>
